<?xml version="1.0" encoding="utf-8"?>
<!DOCTYPE svg PUBLIC "-//W3C//DTD SVG 20010904//EN" "http://www.w3.org/TR/2001/REC-SVG-20010904/DTD/svg10.dtd">
<svg version="1.0" xmlns="http://www.w3.org/2000/svg" width="502pt" height="160pt" viewBox="0 0 502 160" style="" preserveAspectRatio="xMidYMid meet">
<g fill="#FC4064FF" stroke="#FC4064FF">
<path d="M 183.000 34.175 C 179.975 39.174 175.588 45.408 173.250 48.029 C 170.913 50.650 169.000 53.202 169.000 53.701 C 169.000 55.347 175.558 61.000 177.469 61.000 C 178.499 61.000 180.165 60.255 181.171 59.345 C 182.932 57.752 183.000 58.086 183.000 68.345 L 183.000 79.000 190.000 79.000 C 194.000 79.000 197.000 78.571 197.000 78.000 C 197.000 77.450 199.025 77.000 201.500 77.000 C 204.833 77.000 206.000 77.389 206.000 78.500 C 206.000 79.775 203.444 80.000 189.000 80.000 L 172.000 80.000 172.000 85.000 L 172.000 90.000 183.250 90.047 L 194.500 90.093 189.985 92.447 C 187.501 93.741 182.213 95.789 178.235 96.997 C 174.256 98.206 171.018 99.488 171.040 99.847 C 171.127 101.278 179.919 110.000 181.274 110.000 C 183.178 110.000 194.419 104.881 200.883 101.069 L 206.000 98.052 206.000 104.526 L 206.000 111.000 213.500 111.000 L 221.000 111.000 221.000 104.402 L 221.000 97.804 224.250 99.973 C 234.317 106.691 249.000 111.929 249.000 108.802 C 249.000 108.000 250.405 105.221 252.123 102.628 C 253.841 100.035 255.068 97.735 254.851 97.517 C 254.633 97.300 251.315 96.456 247.477 95.642 C 243.640 94.828 238.700 93.338 236.500 92.331 L 232.500 90.500 242.750 90.215 L 253.000 89.930 253.000 84.965 L 253.000 80.000 237.000 80.000 C 223.444 80.000 221.000 79.771 221.000 78.500 C 221.000 77.238 223.222 77.000 235.000 77.000 L 249.000 77.000 249.000 72.000 L 249.000 67.000 236.250 66.786 L 223.500 66.572 234.750 66.253 L 246.000 65.934 246.000 61.467 L 246.000 57.000 235.000 57.000 C 228.333 57.000 224.000 56.606 224.000 56.000 C 224.000 55.394 228.333 55.000 235.000 55.000 L 246.000 55.000 246.000 50.533 L 246.000 46.066 234.750 45.747 L 223.500 45.428 236.250 45.214 L 249.000 45.000 249.000 40.000 L 249.000 35.000 237.061 35.000 L 225.123 35.000 224.448 30.500 L 223.773 26.000 218.136 26.014 C 215.036 26.021 211.454 26.307 210.176 26.650 C 207.844 27.274 207.736 28.543 209.603 33.407 C 210.113 34.736 209.368 35.000 205.107 35.000 C 200.357 35.000 198.643 33.957 201.000 32.500 C 203.233 31.120 201.744 28.819 197.417 26.964 C 189.794 23.697 189.144 24.022 183.000 34.175 M 210.000 56.000 C 210.000 56.564 207.167 57.000 203.500 57.000 C 199.833 57.000 197.000 56.564 197.000 56.000 C 197.000 55.436 199.833 55.000 203.500 55.000 C 207.167 55.000 210.000 55.436 210.000 56.000 "/></g>
<g fill="#03B223FF" stroke="#03B223FF">
<path d="M 66.200 19.200 C 64.851 20.549 64.424 60.528 65.750 61.342 C 66.163 61.596 70.071 61.181 74.436 60.421 C 78.801 59.660 82.560 59.227 82.791 59.457 C 83.021 59.688 82.666 77.459 82.002 98.948 C 81.337 120.437 81.051 138.690 81.365 139.510 C 81.836 140.735 84.509 141.000 96.410 141.000 C 104.369 141.000 111.106 140.638 111.380 140.195 C 111.653 139.752 111.371 120.593 110.752 97.619 C 109.828 63.268 109.861 55.704 110.942 55.036 C 111.665 54.589 114.561 53.933 117.378 53.577 C 120.195 53.221 123.963 52.671 125.750 52.354 L 129.000 51.777 129.000 36.089 C 129.000 25.220 128.631 20.031 127.800 19.200 C 126.086 17.486 67.914 17.486 66.200 19.200 "/></g>
<g fill="#03B223FF" stroke="#03B223FF">
<path d="M 13.119 19.357 C 12.300 20.343 12.038 26.900 12.229 41.627 L 12.500 62.500 15.750 62.353 L 19.000 62.205 18.996 74.353 C 18.994 81.034 18.701 92.195 18.346 99.155 L 17.701 111.810 14.850 112.380 L 12.000 112.950 12.000 125.853 C 12.000 135.598 12.337 139.035 13.379 139.900 C 14.336 140.694 20.687 140.961 34.129 140.772 L 53.500 140.500 53.500 121.500 L 53.500 102.500 50.360 102.739 L 47.221 102.978 46.516 81.239 C 46.129 69.282 45.742 58.615 45.656 57.532 C 45.533 55.984 46.412 55.366 49.772 54.635 L 54.045 53.706 53.772 36.103 L 53.500 18.500 33.890 18.229 C 18.066 18.011 14.055 18.229 13.119 19.357 "/></g>
<g fill="#FC4064FF" stroke="#FC4064FF">
<path d="M 314.000 34.852 L 314.000 44.000 299.500 44.000 L 285.000 44.000 285.000 65.500 L 285.000 87.000 292.500 87.000 L 300.000 87.000 300.000 83.500 L 300.000 80.000 307.000 80.000 L 314.000 80.000 314.000 95.500 L 314.000 111.000 322.000 111.000 L 330.000 111.000 330.000 95.500 L 330.000 80.000 337.500 80.000 L 345.000 80.000 345.000 83.000 L 345.000 86.000 353.000 86.000 L 361.000 86.000 361.000 65.000 L 361.000 44.000 345.500 44.000 L 330.000 44.000 330.000 39.149 C 330.000 36.481 330.502 32.858 331.116 31.098 C 331.729 29.338 332.038 27.705 331.802 27.469 C 331.567 27.233 327.465 26.740 322.687 26.373 L 314.000 25.705 314.000 34.852 M 345.000 62.000 L 345.000 69.000 337.500 69.000 L 330.000 69.000 330.000 62.000 L 330.000 55.000 337.500 55.000 L 345.000 55.000 345.000 62.000 M 314.000 62.000 L 314.000 69.000 307.000 69.000 L 300.000 69.000 300.000 62.000 L 300.000 55.000 307.000 55.000 L 314.000 55.000 314.000 62.000 "/></g>
<g fill="#FC4064FF" stroke="#FC4064FF">
<path d="M 414.000 28.958 L 414.000 32.000 404.000 32.000 L 394.000 32.000 394.000 38.000 L 394.000 44.000 404.500 44.000 C 413.167 44.000 415.000 44.262 415.000 45.500 C 415.000 46.742 413.111 47.000 404.000 47.000 L 393.000 47.000 393.000 56.000 L 393.000 65.000 400.000 65.000 L 407.000 65.000 407.000 61.000 L 407.000 57.000 433.500 57.000 L 460.000 57.000 460.000 61.000 L 460.000 65.000 467.500 65.000 L 475.000 65.000 475.000 56.000 L 475.000 47.000 463.500 47.000 C 453.944 47.000 452.000 46.746 452.000 45.500 C 452.000 44.267 453.778 44.000 462.000 44.000 L 472.000 44.000 472.000 38.000 L 472.000 32.000 462.500 32.000 L 453.000 32.000 453.000 29.000 L 453.000 26.000 445.500 26.000 L 438.000 26.000 438.000 29.000 C 438.000 31.893 437.838 32.000 433.462 32.000 C 429.109 32.000 428.936 31.888 429.212 29.250 L 429.500 26.500 421.750 26.208 L 414.000 25.916 414.000 28.958 M 438.000 45.500 C 438.000 46.611 436.833 47.000 433.500 47.000 C 430.167 47.000 429.000 46.611 429.000 45.500 C 429.000 44.389 430.167 44.000 433.500 44.000 C 436.833 44.000 438.000 44.389 438.000 45.500 "/></g>
<g fill="#FC4064FF" stroke="#FC4064FF">
<path d="M 402.000 96.000 L 402.000 110.000 409.500 110.000 C 416.333 110.000 417.000 109.822 417.000 108.000 C 417.000 106.083 417.667 106.000 433.000 106.000 C 448.333 106.000 449.000 106.083 449.000 108.000 C 449.000 109.833 449.667 110.000 457.000 110.000 L 465.000 110.000 465.000 96.000 L 465.000 82.000 433.500 82.000 L 402.000 82.000 402.000 96.000 M 449.000 94.000 C 449.000 95.917 448.333 96.000 433.000 96.000 C 417.667 96.000 417.000 95.917 417.000 94.000 C 417.000 92.083 417.667 92.000 433.000 92.000 C 448.333 92.000 449.000 92.083 449.000 94.000 "/></g>
<g fill="#FC4064FF" stroke="#FC4064FF">
<path d="M 408.000 69.500 L 408.000 80.000 433.500 80.000 L 459.000 80.000 459.000 69.500 L 459.000 59.000 433.500 59.000 L 408.000 59.000 408.000 69.500 M 445.000 69.500 C 445.000 70.746 443.056 71.000 433.500 71.000 C 423.944 71.000 422.000 70.746 422.000 69.500 C 422.000 68.254 423.944 68.000 433.500 68.000 C 443.056 68.000 445.000 68.254 445.000 69.500 "/></g>
<g fill="#FC4064FF" stroke="#FC4064FF">
<path d="M 203.529 132.250 C 203.840 133.488 205.135 138.100 206.406 142.500 C 208.434 149.520 208.999 150.500 211.023 150.500 C 212.967 150.500 213.663 149.503 215.445 144.165 L 217.560 137.829 219.582 144.165 C 221.143 149.053 222.088 150.571 223.724 150.809 C 225.580 151.080 226.163 150.069 228.421 142.665 C 229.840 138.015 231.000 133.713 231.000 133.105 C 231.000 132.497 231.346 132.000 231.769 132.000 C 232.192 132.000 233.686 136.163 235.091 141.250 C 237.384 149.559 237.882 150.500 239.987 150.500 C 241.975 150.500 242.650 149.541 244.445 144.165 L 246.560 137.829 248.582 144.165 C 250.143 149.053 251.088 150.571 252.724 150.809 C 254.580 151.080 255.163 150.069 257.421 142.665 C 258.840 138.015 260.000 133.713 260.000 133.105 C 260.000 132.497 260.346 132.000 260.769 132.000 C 261.192 132.000 262.686 136.163 264.091 141.250 C 266.384 149.559 266.882 150.500 268.987 150.500 C 270.975 150.500 271.650 149.541 273.445 144.165 L 275.560 137.829 277.582 144.165 C 279.143 149.053 280.088 150.571 281.724 150.809 C 283.854 151.120 284.389 149.830 289.628 131.750 C 290.011 130.427 289.547 130.000 287.727 130.000 C 285.633 130.000 285.146 130.722 283.989 135.547 C 283.257 138.597 282.352 141.283 281.978 141.514 C 281.603 141.745 280.484 139.249 279.490 135.967 C 278.002 131.051 277.299 130.000 275.500 130.000 C 273.701 130.000 272.998 131.051 271.510 135.967 C 270.516 139.249 269.396 141.745 269.021 141.513 C 268.646 141.281 267.780 138.596 267.098 135.546 L 265.857 130.000 261.088 130.000 L 256.319 130.000 254.989 135.547 C 254.257 138.597 253.352 141.283 252.978 141.514 C 252.603 141.745 251.484 139.249 250.490 135.967 C 249.002 131.051 248.299 130.000 246.500 130.000 C 244.701 130.000 243.998 131.051 242.510 135.967 C 241.516 139.249 240.396 141.745 240.021 141.513 C 239.646 141.281 238.780 138.596 238.098 135.546 L 236.857 130.000 232.088 130.000 L 227.319 130.000 225.989 135.547 C 225.257 138.597 224.352 141.283 223.978 141.514 C 223.603 141.745 222.484 139.249 221.490 135.967 C 220.002 131.051 219.299 130.000 217.500 130.000 C 215.701 130.000 214.998 131.051 213.510 135.967 C 212.516 139.249 211.396 141.745 211.021 141.513 C 210.646 141.281 209.780 138.596 209.098 135.546 C 208.006 130.667 207.562 130.000 205.409 130.000 C 203.370 130.000 203.056 130.375 203.529 132.250 "/></g>
<g fill="#FC4064FF" stroke="#FC4064FF">
<path d="M 300.589 131.250 C 300.977 131.938 302.354 133.932 303.648 135.683 C 306.642 139.735 306.612 140.173 303.000 145.159 C 299.352 150.195 299.283 151.000 302.500 151.000 C 303.875 151.000 305.002 150.663 305.005 150.250 C 305.008 149.838 306.054 148.195 307.331 146.600 L 309.651 143.700 311.907 147.350 C 314.008 150.750 314.501 151.000 319.082 151.000 C 321.787 151.000 324.002 150.663 324.005 150.250 C 324.008 149.838 325.054 148.195 326.331 146.600 L 328.651 143.700 330.907 147.350 C 332.497 149.922 333.877 151.000 335.582 151.000 C 336.912 151.000 338.000 150.757 338.000 150.461 C 338.000 150.164 336.461 147.636 334.580 144.842 L 331.159 139.763 334.080 135.731 C 337.598 130.874 337.695 130.000 334.716 130.000 C 333.213 130.000 331.793 131.080 330.567 133.156 L 328.703 136.312 326.049 133.060 C 324.176 130.766 322.725 129.911 321.116 130.155 C 318.840 130.500 318.841 130.506 321.918 134.741 C 323.613 137.074 325.000 139.431 325.000 139.978 C 325.000 141.204 319.741 148.910 318.868 148.962 C 318.521 148.983 316.877 146.910 315.216 144.356 L 312.195 139.713 315.098 135.706 C 318.598 130.874 318.693 130.000 315.716 130.000 C 314.213 130.000 312.793 131.080 311.567 133.156 L 309.703 136.312 307.101 133.147 C 304.566 130.062 299.001 128.441 300.589 131.250 "/></g>
<g fill="#FC4064FF" stroke="#FC4064FF">
<path d="M 421.000 140.610 C 421.000 150.333 421.128 151.000 423.000 151.000 C 424.785 151.000 425.002 150.328 425.015 144.750 C 425.031 137.885 426.588 133.703 429.323 133.176 C 432.897 132.488 434.000 134.833 434.000 143.122 C 434.000 150.859 434.045 151.000 436.500 151.000 C 438.926 151.000 439.000 150.796 439.000 144.065 C 439.000 136.961 437.792 132.121 435.687 130.790 C 435.034 130.377 431.463 130.080 427.750 130.129 L 421.000 130.220 421.000 140.610 "/></g>
<g fill="#FC4064FF" stroke="#FC4064FF">
<path d="M 350.571 131.571 C 346.894 135.249 349.371 139.742 356.305 141.969 C 360.345 143.267 360.936 145.382 357.809 147.351 C 356.525 148.159 355.662 148.004 354.230 146.708 C 352.305 144.966 348.000 144.344 348.000 145.809 C 348.000 149.623 355.759 152.171 360.896 150.043 C 367.025 147.504 365.361 139.994 358.300 138.324 C 355.507 137.663 354.500 136.908 354.500 135.476 C 354.500 133.023 357.986 132.223 359.202 134.397 C 360.315 136.385 364.000 136.518 364.000 134.571 C 364.000 130.333 354.036 128.107 350.571 131.571 "/></g>
<g fill="#FC4064FF" stroke="#FC4064FF">
<path d="M 403.174 132.314 C 399.898 135.801 400.060 145.151 403.455 148.545 C 407.896 152.987 417.918 150.714 417.985 145.250 C 418.009 143.239 413.597 143.814 412.232 146.000 C 411.545 147.100 410.537 148.000 409.992 148.000 C 409.446 148.000 408.100 147.100 407.000 146.000 C 404.586 143.586 404.370 138.344 406.557 135.223 C 408.335 132.683 411.784 132.274 412.638 134.500 C 413.355 136.367 418.000 136.501 418.000 134.655 C 418.000 129.863 407.095 128.141 403.174 132.314 "/></g>
<g fill="#FC4064FF" stroke="#FC4064FF">
<path d="M 369.000 127.094 C 369.000 128.346 368.197 129.397 367.000 129.710 C 364.682 130.316 364.274 133.000 366.500 133.000 C 367.699 133.000 368.000 134.492 368.000 140.429 C 368.000 149.013 369.235 151.000 374.571 151.000 C 377.327 151.000 378.000 150.609 378.000 149.012 C 378.000 147.546 377.409 147.086 375.750 147.262 C 373.625 147.487 373.484 147.097 373.206 140.250 C 372.915 133.073 372.938 133.000 375.456 133.000 C 377.051 133.000 378.000 132.440 378.000 131.500 C 378.000 130.567 377.056 130.000 375.500 130.000 C 373.500 130.000 373.000 129.500 373.000 127.500 C 373.000 125.667 372.467 125.000 371.000 125.000 C 369.637 125.000 369.000 125.667 369.000 127.094 "/></g>
<g fill="#FC4064FF" stroke="#FC4064FF">
<path d="M 341.000 140.918 C 341.000 152.655 340.566 155.000 338.393 155.000 C 337.627 155.000 337.000 155.675 337.000 156.500 C 337.000 158.337 342.041 158.559 343.800 156.800 C 344.608 155.992 345.000 151.422 345.000 142.800 C 345.000 130.667 344.896 130.000 343.000 130.000 C 341.122 130.000 341.000 130.667 341.000 140.918 "/></g>
<g fill="#FC4064FF" stroke="#FC4064FF">
<path d="M 382.000 136.000 C 382.000 150.333 382.089 151.000 384.000 151.000 C 385.911 151.000 386.000 150.333 386.000 136.000 C 386.000 121.667 385.911 121.000 384.000 121.000 C 382.089 121.000 382.000 121.667 382.000 136.000 "/></g>
<g fill="#FC4064FF" stroke="#FC4064FF">
<path d="M 392.000 149.000 C 392.000 150.333 392.667 151.000 394.000 151.000 C 395.333 151.000 396.000 150.333 396.000 149.000 C 396.000 147.667 395.333 147.000 394.000 147.000 C 392.667 147.000 392.000 147.667 392.000 149.000 "/></g>
<g fill="#FC4064FF" stroke="#FC4064FF">
<path d="M 293.000 149.000 C 293.000 150.333 293.667 151.000 295.000 151.000 C 296.333 151.000 297.000 150.333 297.000 149.000 C 297.000 147.667 296.333 147.000 295.000 147.000 C 293.667 147.000 293.000 147.667 293.000 149.000 "/></g>
<g fill="#FC4064FF" stroke="#FC4064FF">
<path d="M 341.000 123.000 C 341.000 124.333 341.667 125.000 343.000 125.000 C 344.333 125.000 345.000 124.333 345.000 123.000 C 345.000 121.667 344.333 121.000 343.000 121.000 C 341.667 121.000 341.000 121.667 341.000 123.000 "/></g>
</svg>
